<?xml version="1.0" standalone="no"?>
<!DOCTYPE svg PUBLIC "-//W3C//DTD SVG 20010904//EN"
 "http://www.w3.org/TR/2001/REC-SVG-20010904/DTD/svg10.dtd">
<svg version="1.0" xmlns="http://www.w3.org/2000/svg"
 width="906.000000pt" height="906.000000pt" viewBox="0 0 906.000000 906.000000"
 preserveAspectRatio="xMidYMid meet">
<metadata>
Created by potrace 1.14, written by Peter Selinger 2001-2017
</metadata>
<g transform="translate(0.000000,906.000000) scale(0.100000,-0.100000)"
fill="#000000" stroke="none">
<path d="M4972 8055 c-10 -38 -25 -94 -27 -105 -13 -53 -19 -60 -68 -76 -29
-10 -56 -19 -62 -20 -5 -1 -26 -8 -45 -17 -23 -10 -30 -16 -20 -20 8 -2 51
-16 95 -30 69 -21 80 -28 88 -53 5 -16 11 -36 14 -44 4 -8 5 -19 4 -24 -1 -5
1 -16 5 -25 10 -22 22 -66 23 -85 1 -12 14 1 17 17 1 7 13 51 25 99 l23 86 94
32 c51 18 91 34 89 36 -2 3 -46 19 -98 37 -52 18 -94 37 -94 42 -1 16 -25 109
-40 151 l-13 39 -10 -40z"/>
<path d="M7560 7860 c0 -3 -21 -6 -45 -7 -53 -2 -162 -33 -243 -70 -51 -23
-161 -84 -187 -105 -5 -4 -47 -36 -92 -71 -127 -98 -214 -178 -403 -368 -202
-203 -227 -230 -335 -359 -44 -52 -82 -97 -86 -100 -22 -21 -266 -349 -319
-430 -5 -8 -27 -40 -49 -72 -21 -31 -51 -77 -66 -102 -27 -46 -35 -49 -80 -31
-60 24 -271 118 -280 125 -5 4 -22 10 -37 14 -16 3 -28 11 -28 16 0 6 -5 10
-12 10 -6 0 -41 14 -77 31 -331 158 -691 285 -921 324 -19 3 -52 10 -74 16
-21 6 -44 8 -51 5 -7 -2 -16 -2 -19 2 -7 7 -13 8 -93 16 -144 15 -206 19 -318
19 -119 1 -269 -8 -296 -17 -8 -3 -32 -7 -54 -10 -51 -6 -220 -50 -260 -67
-16 -7 -32 -13 -35 -13 -22 -4 -180 -81 -180 -88 0 -5 -4 -7 -9 -4 -5 3 -14
-1 -21 -9 -7 -8 -17 -15 -22 -15 -5 0 -14 -4 -21 -10 -7 -5 -46 -36 -87 -68
-41 -32 -97 -81 -123 -108 -48 -48 -173 -212 -171 -223 1 -3 -11 -28 -26 -56
-106 -190 -123 -487 -40 -700 6 -16 11 -31 11 -32 0 -2 15 -29 33 -61 l33 -58
-23 -17 c-13 -9 -26 -17 -30 -17 -18 0 -144 -102 -218 -177 -92 -93 -160 -204
-207 -340 -10 -29 -16 -53 -13 -53 3 0 -1 -10 -7 -22 -15 -28 -20 -217 -8
-288 11 -58 16 -85 19 -85 1 0 3 -8 5 -18 6 -33 68 -152 102 -197 l34 -44 -60
-61 c-33 -33 -69 -71 -81 -85 -11 -14 -31 -38 -44 -54 -32 -38 -108 -171 -130
-226 -31 -75 -34 -84 -40 -102 -10 -34 -23 -171 -16 -188 1 -3 3 -21 5 -40 11
-115 60 -232 147 -348 l40 -54 -30 -31 c-96 -102 -146 -238 -147 -397 0 -134
11 -191 58 -290 11 -25 21 -48 21 -51 2 -11 87 -138 119 -175 74 -88 188 -192
287 -265 30 -22 63 -47 73 -55 9 -7 21 -14 26 -14 5 0 11 -4 13 -8 2 -4 39
-31 83 -60 44 -28 85 -56 92 -62 7 -5 15 -10 18 -10 3 0 61 -33 128 -74 111
-67 284 -158 377 -199 92 -40 257 -89 355 -104 55 -9 219 -9 255 -1 19 5 43
10 52 13 75 17 144 40 150 49 4 6 8 8 8 3 0 -7 93 41 140 74 24 16 30 16 113
-2 48 -10 108 -21 132 -24 24 -3 60 -8 80 -11 21 -3 83 -7 140 -8 56 -2 107
-6 112 -9 6 -4 13 -4 17 0 3 3 32 7 64 9 56 2 121 9 172 19 149 29 195 41 315
87 82 31 226 98 235 109 3 3 20 14 37 23 133 68 356 255 502 421 81 92 85 97
116 140 16 22 34 45 39 50 6 6 16 18 21 27 6 8 31 47 57 86 26 39 54 84 63 99
9 15 24 42 35 58 10 17 25 41 33 55 23 41 177 348 177 354 0 2 13 33 29 68 70
153 193 476 252 663 10 33 23 69 28 80 10 23 30 86 36 112 2 10 21 70 41 133
20 63 40 131 45 150 15 54 16 59 43 150 14 47 27 96 30 110 3 14 10 41 16 60
6 19 13 46 16 60 3 14 12 48 20 76 8 28 16 60 18 70 2 11 16 66 30 124 25 105
35 148 41 185 2 11 4 20 5 20 1 0 3 7 5 15 7 33 14 66 19 90 3 14 9 39 12 55
4 17 8 39 10 50 4 24 11 61 18 83 3 9 7 35 11 57 9 66 15 99 21 117 6 20 12
51 19 98 3 20 8 47 10 60 3 14 7 39 10 55 11 71 19 95 71 204 61 127 90 185
141 276 18 33 38 71 45 85 37 73 302 483 335 518 6 6 15 21 18 32 3 11 10 20
14 20 5 0 14 14 21 30 7 17 16 30 21 30 4 0 11 9 14 20 3 11 12 26 19 32 17
18 98 161 134 238 88 189 117 374 84 550 -42 231 -168 385 -372 456 -64 23
-106 29 -223 37 -20 1 -37 0 -37 -3z"/>
<path d="M1117 6408 c-10 -35 -20 -72 -21 -83 -2 -11 -4 -20 -5 -20 -2 0 -4
-7 -6 -15 -10 -53 -56 -205 -63 -212 -5 -5 -96 -37 -202 -72 l-194 -64 49 -15
c50 -15 66 -21 220 -74 44 -15 82 -28 85 -28 37 -5 47 -19 69 -103 13 -48 25
-96 27 -107 2 -11 13 -56 25 -100 11 -44 23 -92 26 -108 6 -32 23 -47 23 -20
0 11 12 59 26 108 14 50 28 97 29 105 2 8 10 36 18 63 8 26 13 47 10 47 -3 0
-1 6 5 13 5 6 13 27 17 44 3 18 12 36 18 40 11 7 154 59 287 104 90 31 88 29
55 43 -16 7 -33 11 -37 9 -5 -2 -8 1 -8 8 0 7 -3 10 -6 7 -3 -4 -58 12 -122
34 -64 22 -121 41 -127 42 -35 10 -65 27 -66 38 -1 19 -5 33 -34 133 -15 50
-29 98 -30 107 -2 9 -8 25 -13 35 -6 10 -10 21 -11 26 -2 29 -14 77 -20 77 -4
0 -15 -28 -24 -62z"/>
<path d="M307 4900 c-9 -30 -23 -85 -32 -121 l-17 -66 -81 -29 c-45 -16 -84
-29 -87 -30 -34 -7 -60 -18 -60 -25 0 -5 3 -8 8 -7 4 0 15 -2 25 -5 9 -4 25
-10 35 -14 24 -9 20 -8 90 -28 66 -19 74 -28 86 -91 3 -16 14 -62 24 -101 10
-40 16 -75 14 -78 -3 -3 0 -5 6 -5 6 0 16 19 23 43 36 136 58 202 70 210 8 4
59 23 114 41 110 37 108 31 20 67 -38 15 -130 42 -135 40 -7 -4 -38 72 -39 97
-1 12 -5 30 -10 40 -5 9 -15 40 -23 67 l-15 50 -16 -55z"/>
<path d="M8723 4164 c3 -6 -5 -51 -19 -100 -14 -49 -27 -98 -29 -108 -7 -32
-24 -41 -137 -76 -59 -19 -105 -36 -102 -39 3 -3 9 -6 12 -6 4 0 12 -3 17 -6
6 -4 35 -14 65 -24 30 -9 73 -23 96 -32 l40 -14 34 -136 34 -135 23 74 c12 40
24 82 26 93 2 11 6 27 10 35 3 8 8 26 11 40 4 20 18 30 63 46 32 12 67 25 78
30 11 4 22 8 25 9 3 0 23 7 45 14 l39 14 -44 14 c-25 8 -49 15 -55 16 -5 2
-15 6 -21 9 -6 4 -21 9 -35 11 -46 9 -99 36 -100 51 -1 9 -2 19 -3 24 -18 68
-28 100 -36 114 -6 10 -10 28 -10 42 0 13 -8 30 -17 37 -9 8 -14 9 -10 3z"/>
<path d="M7889 3242 c-2 -15 -6 -31 -9 -34 -1 -2 -3 -10 -5 -18 -2 -8 -14 -51
-26 -95 -11 -44 -23 -89 -25 -100 -2 -11 -8 -31 -13 -45 -5 -14 -14 -44 -20
-67 l-11 -41 -173 -56 c-94 -31 -185 -62 -200 -68 -26 -10 -13 -16 165 -75
106 -36 198 -70 204 -77 7 -6 19 -42 28 -81 22 -91 22 -93 34 -140 6 -22 13
-51 16 -65 3 -14 9 -40 15 -58 5 -18 10 -33 10 -35 -1 -1 3 -15 6 -30 7 -27
17 -29 21 -4 1 7 19 71 39 142 20 72 38 135 39 140 1 6 4 15 8 20 3 6 9 26 13
45 12 61 15 68 38 75 12 4 24 8 27 10 24 10 52 20 165 61 72 25 135 47 142 48
28 5 24 17 -13 32 -21 9 -43 17 -49 18 -5 1 -16 5 -22 9 -7 5 -13 6 -13 4 0
-2 -59 17 -131 42 -147 51 -139 43 -170 175 -6 28 -16 57 -22 64 -5 6 -7 12
-4 12 3 0 -4 28 -14 63 -20 61 -28 90 -33 114 -3 18 -16 28 -17 15z"/>
<path d="M1131 1746 c-7 -9 -11 -16 -8 -16 3 0 -3 -27 -13 -60 -10 -33 -16
-60 -13 -60 3 0 0 -6 -6 -13 -6 -8 -8 -16 -5 -19 5 -6 -17 -14 -150 -58 l-50
-17 100 -34 99 -34 18 -75 c10 -41 22 -88 26 -105 7 -30 7 -30 19 -7 7 12 10
22 8 22 -3 0 1 18 9 40 8 22 14 41 14 43 -1 1 4 20 10 42 9 36 16 42 63 59 29
11 56 19 60 18 4 -1 22 7 40 18 18 11 30 21 26 21 -12 2 -21 5 -38 12 -8 3
-40 13 -70 22 -30 10 -60 22 -67 29 -10 10 -31 73 -51 160 -7 26 -9 27 -21 12z"/>
</g>
</svg>
